<?xml version="1.0" encoding="UTF-8"?>
<svg xmlns="http://www.w3.org/2000/svg" id="Layer_1" data-name="Layer 1" viewBox="0 0 512 512" width="512" height="512"><path d="M84.067,121h162.75a6,6,0,0,0,0-12H84.067a6,6,0,0,0,0,12Z"/><path d="M286.55,109H268.926a6,6,0,0,0,0,12H286.55a6,6,0,0,0,0-12Z"/><path d="M91.671,139h-7.6a6,6,0,0,0,0,12h7.6a6,6,0,0,0,0-12Z"/><path d="M216.062,139H114.438a6,6,0,1,0,0,12H216.062a6,6,0,0,0,0-12Z"/><path d="M286.55,139H238.171a6,6,0,0,0,0,12H286.55a6,6,0,0,0,0-12Z"/><path d="M456,92.372a6,6,0,0,0-6,6v6.254a6,6,0,0,0,12,0V98.372A6,6,0,0,0,456,92.372Z"/><path d="M456,121.479a6,6,0,0,0-6,6V186.1a6,6,0,1,0,12,0V127.479A6,6,0,0,0,456,121.479Z"/><path d="M419.035,238h-75.31a35.5,35.5,0,1,0,0,71h75.31a35.5,35.5,0,1,0,0-71Zm0,59h-75.31a23.5,23.5,0,1,1,0-47h75.31a23.5,23.5,0,1,1,0,47Z"/><path d="M106.925,304.394,34.016,331.211a6,6,0,0,0-3.929,5.575,6.122,6.122,0,0,0,3.955,5.648L54,350.154v41.019a5.88,5.88,0,0,0,3.77,5.621,146.348,146.348,0,0,0,102.489,0A5.856,5.856,0,0,0,164,391.173V350.154l12-4.536v5.27l-5.252,11.834A31.7,31.7,0,0,0,168,375.187V392.2c0,3.314,2.98,5.8,6.294,5.8h14.9A5.669,5.669,0,0,0,195,392.2V374.959a31.425,31.425,0,0,0-2.2-11.966L188,350.861l-.1-14.292a5.859,5.859,0,0,0-3.928-5.466L111.067,304.34A6.009,6.009,0,0,0,106.925,304.394ZM180,375.187a19.649,19.649,0,0,1,1.546-7.532,19.655,19.655,0,0,1,1.454,7.3V386h-3Zm-28,11.752a133.423,133.423,0,0,1-86,0v-2.028a145.076,145.076,0,0,0,86,0Zm0-14.637a133.4,133.4,0,0,1-86,0V354.828l40.952,16a5.646,5.646,0,0,0,2.11.409,5.175,5.175,0,0,0,2.016-.409l40.922-16Zm-43-13.5L53.032,337,109,316.418,164.959,337Z"/><path d="M464.246,53H74.69A36.7,36.7,0,0,0,38,89.708v195a104.353,104.353,0,1,0,181.765,69.967c0-1.567-.041-3.125-.11-4.676H464.246A36.974,36.974,0,0,0,501,313.04V89.708A36.758,36.758,0,0,0,464.246,53ZM489,313.04A25.033,25.033,0,0,1,464.04,338H218.426a103.721,103.721,0,0,0-17.453-42.96,5.9,5.9,0,0,0-9-.77l-.119.119a5.937,5.937,0,0,0-.623,7.612,92.425,92.425,0,1,1-28.9-26.847,5.917,5.917,0,0,0,7.213-.877l.132-.132a5.891,5.891,0,0,0-1.1-9.218A104.121,104.121,0,0,0,50,273.388V89.708A24.708,24.708,0,0,1,74.708,65H464.246A24.754,24.754,0,0,1,489,89.754Z"/></svg>
