<svg id="Capa_1" enable-background="new 0 0 512 512" height="512" viewBox="0 0 512 512" width="512" xmlns="http://www.w3.org/2000/svg" xmlns:xlink="http://www.w3.org/1999/xlink"><linearGradient id="SVGID_1_" gradientUnits="userSpaceOnUse" x1="375.359" x2="123.359" y1="660.499" y2="32.499"><stop offset=".0023" stop-color="#ff9494"/><stop offset=".992" stop-color="#ffe8dc" stop-opacity="0"/></linearGradient><g><path d="m419.843 204.806c1.055-7.758 1.571-15.687 1.509-23.748-.692-90.025-74.256-163.486-164.281-164.057-91.815-.581-166.428 73.673-166.428 165.354 0 7.615.516 15.109 1.513 22.45 4.043 29.747-9.887 59.143-35.212 75.263-35.611 22.668-56.944 51.54-56.944 82.98 0 72.876 114.615 131.954 256 131.954s256-59.078 256-131.954c0-31.44-21.334-60.312-56.946-82.98-25.325-16.12-39.254-45.516-35.211-75.262z" fill="url(#SVGID_1_)"/><g><g><path d="m447.358 350.851c-1.279 0-2.56-.488-3.535-1.465l-11-11c-1.953-1.952-1.953-5.118 0-7.07l11-11c1.951-1.953 5.119-1.953 7.07 0l11 11c1.953 1.952 1.953 5.118 0 7.07l-11 11c-.975.976-2.255 1.465-3.535 1.465zm-3.928-16 3.929 3.929 3.929-3.929-3.929-3.929z" fill="#6c6cff"/></g><g><path d="m426.451 81.466c-1.279 0-2.56-.488-3.535-1.465l-11-11c-1.953-1.952-1.953-5.118 0-7.07l11-11c1.951-1.953 5.119-1.953 7.07 0l11 11c1.953 1.952 1.953 5.118 0 7.07l-11 11c-.975.977-2.256 1.465-3.535 1.465zm-3.929-16 3.929 3.929 3.929-3.929-3.929-3.929z" fill="#6c6cff"/></g><g><path d="m64.935 183.25c-1.279 0-2.559-.488-3.535-1.464l-11.293-11.292c-.938-.938-1.465-2.21-1.465-3.536s.526-2.598 1.465-3.535l11.293-11.293c.938-.938 2.209-1.465 3.535-1.465 1.326 0 2.598.527 3.536 1.465l11.292 11.293c1.952 1.952 1.952 5.118-.001 7.07l-11.292 11.292c-.976.977-2.256 1.465-3.535 1.465zm-4.222-16.292 4.222 4.221 4.221-4.221-4.221-4.222z" fill="#ff9d33"/></g><g><path d="m426.451 298.895c-7.175 0-13.012-5.837-13.012-13.012s5.837-13.012 13.012-13.012 13.012 5.837 13.012 13.012-5.837 13.012-13.012 13.012zm0-16.024c-1.661 0-3.012 1.351-3.012 3.012s1.351 3.012 3.012 3.012 3.012-1.351 3.012-3.012-1.351-3.012-3.012-3.012z" fill="#ff6c6c"/></g><g><path d="m91.215 250.139c-7.175 0-13.012-5.837-13.012-13.012s5.837-13.013 13.012-13.013 13.012 5.838 13.012 13.013-5.837 13.012-13.012 13.012zm0-16.025c-1.661 0-3.012 1.352-3.012 3.013s1.351 3.012 3.012 3.012 3.012-1.351 3.012-3.012-1.351-3.013-3.012-3.013z" fill="#ff6c6c"/></g><g><g><g><path d="m136.798 465.671c0 11.5 9.33 20.83 20.84 20.83h206.12c11.51 0 20.84-9.33 20.84-20.83v-392.34c0-11.5-9.33-20.83-20.84-20.83h-206.12c-11.51 0-20.84 9.33-20.84 20.83z" fill="#00c" opacity=".1"/><path d="m384.599 46.33v392.34c0 11.5-9.33 20.83-20.84 20.83h-206.12c-11.51 0-20.84-9.33-20.84-20.83v-392.34c0-11.5 9.33-20.83 20.84-20.83h206.12c11.51 0 20.84 9.33 20.84 20.83z" fill="#b3b3ff"/><path d="m136.798 218v220.67c0 11.5 9.33 20.83 20.84 20.83h206.12c11.51 0 20.84-9.33 20.84-20.83v-220.67z" fill="#ffe8dc"/><path d="m328.245 53.506 8.453-28.007h-152l8.453 28.007c1.274 4.222 5.164 7.11 9.573 7.11h115.946c4.411 0 8.301-2.889 9.575-7.11z" fill="#ffab66"/><path d="m384.598 285c2.762 0 5-2.238 5-5v-233.665c0-14.246-11.59-25.836-25.836-25.836h-27.063c-2.205 0-4.149 1.444-4.787 3.556l-8.453 28.006c-.642 2.127-2.565 3.556-4.786 3.556h-115.947c-2.222 0-4.145-1.429-4.786-3.556l-6.509-21.562h111.527c2.762 0 5-2.238 5-5s-2.238-5-5-5h-145.323c-14.245 0-25.835 11.59-25.835 25.836v392.333c0 14.245 11.59 25.835 25.835 25.835h206.127c14.246 0 25.836-11.59 25.836-25.835v-124.668c0-2.762-2.238-5-5-5s-5 2.238-5 5v124.668c0 8.731-7.104 15.835-15.836 15.835h-206.127c-8.731 0-15.835-7.104-15.835-15.835v-392.333c0-8.732 7.104-15.836 15.835-15.836h23.349l7.381 24.451c1.925 6.38 7.695 10.666 14.36 10.666h115.946c6.663 0 12.435-4.286 14.36-10.666l7.38-24.451h23.35c8.732 0 15.836 7.104 15.836 15.836v233.665c.001 2.762 2.239 5 5.001 5z" fill="#00c"/></g></g><g><circle cx="216.706" cy="43.058" fill="#6c6cff" r="4.854"/></g><g><circle cx="233.032" cy="43.058" fill="#6c6cff" r="4.854"/></g><g><path d="m301.299 47.911h-37.202c-2.573 0-4.659-2.086-4.659-4.659s2.086-4.659 4.659-4.659h37.202c2.573 0 4.659 2.086 4.659 4.659s-2.085 4.659-4.659 4.659z" fill="#ff8b00"/></g></g><g><g><path d="m206.097 165.573h109.202c2.573 0 4.659 2.086 4.659 4.659s-2.086 4.659-4.659 4.659h-109.202c-2.573 0-4.659-2.086-4.659-4.659.001-2.573 2.086-4.659 4.659-4.659z" fill="#fff"/></g><g><path d="m216.597 184.382h88.202c2.573 0 4.659 2.086 4.659 4.659s-2.086 4.659-4.659 4.659h-88.202c-2.573 0-4.659-2.086-4.659-4.659.001-2.573 2.086-4.659 4.659-4.659z" fill="#fff"/></g><g><path d="m236.097 87.002h49.202c2.573 0 4.659 2.086 4.659 4.659s-2.086 4.659-4.659 4.659h-49.202c-2.573 0-4.659-2.086-4.659-4.659s2.086-4.659 4.659-4.659z" fill="#fff"/></g></g><g><g><path d="m186.602 271.155c-1.431 0-2.851-.61-3.84-1.794-1.771-2.119-1.488-5.271.631-7.043 18.954-15.84 43.089-24.563 67.956-24.563 16.943 0 33.847 4.126 48.884 11.933 5.059 2.627 9.928 5.671 14.472 9.049 2.216 1.647 2.677 4.779 1.029 6.996-1.648 2.215-4.78 2.676-6.996 1.029-4.115-3.06-8.527-5.818-13.112-8.199-13.619-7.07-28.93-10.808-44.276-10.808-22.528 0-44.385 7.897-61.544 22.237-.936.782-2.073 1.163-3.204 1.163z" fill="#4d4dff"/></g><g><path d="m338.023 290.636c.025-.022.051-.045.076-.067 1.863-1.639 2.256-4.405.869-6.463-1.436-2.13-2.949-4.21-4.548-6.232-1.641-2.074-4.612-2.747-6.822-1.294-2.494 1.64-2.994 5.019-1.178 7.3 1.506 1.893 2.933 3.841 4.285 5.837 1.657 2.447 5.101 2.871 7.318.919z" fill="#4d4dff"/></g><g><path d="m323.295 386.166c-.776 0-1.563-.181-2.3-.563-2.45-1.271-3.406-4.29-2.134-6.741 19.32-37.224 4.76-83.228-32.457-102.549-10.775-5.599-22.896-8.558-35.056-8.558-24.18 0-46.322 11.036-60.75 30.279-1.655 2.211-4.789 2.659-6.999 1.001-2.21-1.656-2.658-4.79-1.001-6.999 16.334-21.786 41.393-34.281 68.75-34.281 13.757 0 27.473 3.349 39.665 9.684 42.108 21.861 58.583 73.912 36.723 116.03-.889 1.715-2.634 2.697-4.441 2.697z" fill="#4d4dff"/></g><g><path d="m312.406 410.57c-1.189 0-2.384-.422-3.339-1.28-16.999-15.268-8.559-38.155-8.191-39.122.068-.18.147-.355.236-.526 14.239-27.433 3.51-61.338-23.917-75.579-7.941-4.127-16.878-6.308-25.846-6.308-21.02 0-40.083 11.584-49.752 30.232-2.823 5.444-6.615 10.847-11.269 16.058-1.839 2.06-5.002 2.238-7.06.399-2.06-1.84-2.238-5-.399-7.06 4.098-4.589 7.412-9.3 9.851-14.001 11.394-21.977 33.859-35.629 58.629-35.629 10.566 0 21.098 2.57 30.455 7.434 32.219 16.729 44.883 56.486 28.338 88.76-.744 2.148-5.646 17.797 5.606 27.902 2.055 1.845 2.225 5.006.379 7.061-.987 1.1-2.351 1.659-3.721 1.659z" fill="#ff4d4d"/></g><g><path d="m292.411 427.752c-1.24 0-2.483-.459-3.452-1.384-22.214-21.209-13.374-52.398-5.549-66.03 9.085-17.633 2.176-39.382-15.435-48.525-5.124-2.653-10.871-4.058-16.616-4.058-12.502 0-23.917 6.302-30.535 16.858-1.467 2.339-4.552 3.046-6.893 1.58-2.339-1.467-3.047-4.553-1.58-6.893 8.459-13.491 23.041-21.546 39.008-21.546 7.339 0 14.676 1.791 21.22 5.181 22.538 11.702 31.355 39.56 19.659 62.103-.035.066-.071.133-.108.197-.044.077-4.841 8.543-6.631 19.553-2.284 14.044 1.204 25.6 10.366 34.348 1.997 1.906 2.07 5.071.163 7.069-.983 1.029-2.299 1.547-3.617 1.547z" fill="#4d4dff"/></g><g><path d="m186.602 363.165c-1.46 0-2.908-.637-3.896-1.862-1.733-2.149-1.396-5.298.755-7.03 6.086-4.906 11.538-10.2 16.203-15.734 1.78-2.111 4.934-2.381 7.046-.601 2.111 1.78 2.38 4.935.601 7.046-5.078 6.022-10.99 11.768-17.574 17.074-.924.745-2.033 1.107-3.135 1.107z" fill="#4d4dff"/></g><g><path d="m270.354 431.505c-1.649 0-3.265-.815-4.219-2.31-3.059-4.787-5.515-11.349-7.168-16.543-3.994 3.806-8.165 7.479-12.466 10.979-2.141 1.744-5.29 1.42-7.033-.723-1.743-2.142-1.42-5.291.723-7.033 6.237-5.076 12.188-10.536 17.687-16.23 1.271-1.316 3.154-1.831 4.924-1.348 1.764.485 3.122 1.896 3.541 3.678.033.142 3.391 14.277 8.221 21.838 1.486 2.327.805 5.418-1.522 6.905-.835.532-1.767.787-2.688.787z" fill="#4d4dff"/></g><g><path d="m219.809 418.338c-1.544 0-3.066-.713-4.046-2.057-1.625-2.231-1.134-5.359 1.099-6.985 15.086-10.988 36.06-29.846 50.3-57.274 4.522-8.718 1.116-19.488-7.596-24.008-2.533-1.314-5.372-2.009-8.207-2.009-6.687 0-12.744 3.679-15.81 9.6-13.633 26.252-36.867 43.238-46.225 49.322-2.316 1.508-5.412.849-6.917-1.466-1.506-2.314-.85-5.412 1.466-6.917 8.692-5.653 30.265-21.406 42.798-45.543 4.788-9.248 14.248-14.996 24.688-14.996 4.431 0 8.86 1.083 12.812 3.132 13.606 7.06 18.93 23.878 11.867 37.491-15.138 29.157-37.334 49.13-53.289 60.752-.888.647-1.919.958-2.94.958z" fill="#4d4dff"/></g><g><path d="m191.604 410.571c-1.768 0-3.48-.938-4.39-2.598-1.327-2.422-.439-5.461 1.981-6.788.561-.31 39.485-22.114 60.452-62.501 1.271-2.452 4.29-3.408 6.741-2.134 2.451 1.272 3.406 4.29 2.134 6.741-22.455 43.255-62.813 65.728-64.521 66.663-.761.419-1.586.617-2.397.617z" fill="#ff4d4d"/></g></g><path d="m308.752 148.684h-96.107c-1.657 0-3-1.343-3-3v-27.178c0-1.657 1.343-3 3-3h96.107c1.657 0 3 1.343 3 3v27.178c0 1.657-1.343 3-3 3z" fill="#ff8b00"/><circle cx="343.991" cy="218" fill="#ff4d4d" r="16.293"/></g></g></svg>