<svg id="Capa_1" enable-background="new 0 0 510 510" height="512" viewBox="0 0 510 510" width="512" xmlns="http://www.w3.org/2000/svg"><g id="XMLID_591_"><path id="XMLID_682_" d="m471 73h-432c-21.505 0-39 17.495-39 39v286c0 21.505 17.495 39 39 39h432c21.505 0 39-17.495 39-39v-286c0-21.505-17.495-39-39-39zm9 325c0 4.962-4.038 9-9 9h-432c-4.962 0-9-4.038-9-9v-286c0-4.962 4.038-9 9-9h432c4.962 0 9 4.038 9 9z"/><path id="XMLID_1044_" d="m198.531 130c-68.925 0-125 56.075-125 125s56.075 125 125 125 125-56.075 125-125-56.075-125-125-125zm0 220c-52.383 0-95-42.617-95-95s42.617-95 95-95 95 42.617 95 95-42.617 95-95 95z"/><path id="XMLID_1417_" d="m406.86 153.128c-27.114 0-44.417 32.229-44.417 54.417 0 19.229 12.285 35.638 29.417 41.804v104.235h30v-104.236c17.132-6.166 29.417-22.575 29.417-41.804 0-22.187-17.303-54.416-44.417-54.416zm0 30c4.888 0 14.417 13.181 14.417 24.417 0 7.949-6.467 14.417-14.417 14.417-7.949 0-14.417-6.467-14.417-14.417.001-11.236 9.53-24.417 14.417-24.417z"/><path id="XMLID_1418_" d="m135.86 230.167c-7.846 0-15.363 6.899-15 15 .364 8.127 6.591 15 15 15 7.846 0 15.363-6.899 15-15-.364-8.127-6.59-15-15-15z"/><path id="XMLID_1419_" d="m194.36 234c-7.846 0-15.363 6.899-15 15 .364 8.127 6.591 15 15 15 7.846 0 15.363-6.899 15-15-.364-8.127-6.59-15-15-15z"/><path id="XMLID_1433_" d="m241.86 276.876c.364 8.127 6.591 15 15 15 7.846 0 15.363-6.899 15-15-.364-8.127-6.591-15-15-15-7.846 0-15.362 6.899-15 15z"/><path id="XMLID_1434_" d="m181.36 291.167c-7.846 0-15.363 6.899-15 15 .364 8.127 6.591 15 15 15 7.846 0 15.363-6.899 15-15-.364-8.127-6.59-15-15-15z"/><path id="XMLID_1435_" d="m230.527 185c-7.846 0-15.363 6.899-15 15 .364 8.127 6.591 15 15 15 7.846 0 15.363-6.899 15-15-.364-8.127-6.591-15-15-15z"/></g></svg>