<svg id="Capa_1" enable-background="new 0 0 512 512" height="512" viewBox="0 0 512 512" width="512" xmlns="http://www.w3.org/2000/svg"><g><g><path d="m208.888 207.945c4.137 0 7.489-3.353 7.489-7.489v-17.756c0-4.137-3.353-7.489-7.489-7.489s-7.489 3.353-7.489 7.489v17.756c0 4.137 3.353 7.489 7.489 7.489z"/><path d="m284.334 207.945c4.137 0 7.489-3.353 7.489-7.489v-17.756c0-4.137-3.353-7.489-7.489-7.489s-7.489 3.353-7.489 7.489v17.756c0 4.137 3.352 7.489 7.489 7.489z"/><path d="m246.652 255.688c10.281 0 19.719-5.616 24.632-14.656 1.975-3.635.63-8.182-3.005-10.156-3.634-1.976-8.181-.631-10.156 3.004-2.289 4.213-6.685 6.829-11.472 6.829-4.833 0-9.248-2.654-11.523-6.926-1.944-3.65-6.479-5.036-10.131-3.09-3.651 1.944-5.034 6.48-3.09 10.131 4.883 9.168 14.365 14.864 24.745 14.864z"/><path d="m424.256 157.174c.003-34.661.005-102.539-.031-102.858-.035-.465-.113-.917-.229-1.355-.939-4.041-3.978-7.274-8.151-8.416h.001l-156.577-42.845c-8.281-2.266-17.034-2.266-25.315 0l-156.576 42.845c-5.055 1.383-8.456 5.833-8.461 11.075-.005 5.24 3.387 9.698 8.44 11.09l67.347 18.56v77.491h-.497c-15.89 0-28.818 12.927-28.818 28.818 0 15.889 12.927 28.817 28.818 28.817h.953c3.992 42.528 34.226 77.537 74.297 88.63v5.862c-53.606 12.356-93.7 60.462-93.7 117.767v71.858c0 4.137 3.353 7.489 7.489 7.489h226.734c4.137 0 7.489-3.353 7.489-7.489v-71.858c0-57.305-40.094-105.411-93.7-117.767v-5.861c40.07-11.093 70.305-46.102 74.297-88.63h.954c15.889 0 28.817-12.927 28.817-28.817s-12.928-28.818-28.817-28.818h-.498l-.003-24.775c0-4.137-3.353-7.489-7.489-7.489-4.137 0-7.489 3.353-7.489 7.489v14.15l-85.641-14.941c-.852-.148-1.722-.148-2.574 0l-85.642 14.941v-62.739l74.188 20.445c4.168 1.149 8.455 1.722 12.741 1.722 4.287 0 8.573-.573 12.741-1.722l74.186-20.444v13.537c0 4.137 3.353 7.489 7.489 7.489s7.489-3.353 7.489-7.489v-17.665l60.759-16.744v88.647c-10.875 3.234-18.831 13.317-18.831 25.229 0 14.513 11.807 26.32 26.32 26.32 14.512 0 26.319-11.807 26.319-26.32-.001-11.911-7.956-21.994-18.829-25.229zm-279.553 48.243h-.497c-7.632 0-13.839-6.208-13.839-13.838 0-7.632 6.208-13.839 13.839-13.839h.497zm203.816-27.678h.498c7.63 0 13.838 6.208 13.838 13.839s-6.208 13.838-13.838 13.838h-.498zm-32.391 175.161-57.265 33.456c-7.556 4.412-16.947 4.413-24.502.002l-7.966-4.653c-3.571-2.087-8.159-.882-10.244 2.688-2.087 3.572-.882 8.158 2.688 10.244l7.968 4.655c6.107 3.565 12.955 5.347 19.802 5.347 6.848 0 13.698-1.783 19.806-5.349l60.613-35.413c15.863 18.511 25.459 42.54 25.459 68.776v64.369h-36.027v-44.241c0-4.137-3.353-7.489-7.489-7.489s-7.489 3.353-7.489 7.489v44.241h-109.741v-44.241c0-4.137-3.353-7.489-7.489-7.489s-7.489 3.353-7.489 7.489v44.241h-36.029v-64.369c0-26.236 9.598-50.264 25.461-68.775l22.813 13.328c1.188.694 2.488 1.024 3.771 1.024 2.574 0 5.081-1.329 6.473-3.712 2.087-3.571.883-8.157-2.688-10.244l-19.465-11.373c12.212-10.652 26.87-18.568 43.024-22.745 2.723 12.119 13.563 21.202 26.49 21.202 12.929 0 23.77-9.086 26.491-21.206 16.153 4.178 30.811 12.095 43.024 22.748zm-81.694-28.698v-12.221c3.994.478 8.057.724 12.178.724 4.12 0 8.184-.246 12.178-.724v12.221c0 6.715-5.463 12.179-12.178 12.179-6.716-.001-12.178-5.464-12.178-12.179zm12.176-172.027 86.931 15.166v43.455c0 47.934-38.996 86.93-86.93 86.93-47.932 0-86.927-38.994-86.93-86.925v-43.46zm8.764-56.772c-5.734 1.58-11.793 1.58-17.525 0l-144.276-39.761 144.334-39.495c5.695-1.558 11.714-1.558 17.408 0l114.175 31.242h-111.191c-4.137 0-7.489 3.353-7.489 7.489s3.353 7.489 7.489 7.489h116.946zm161.39 98.341c-6.254 0-11.342-5.088-11.342-11.342s5.088-11.342 11.342-11.342 11.341 5.088 11.341 11.342-5.087 11.342-11.341 11.342z"/></g></g></svg>