<?xml version="1.0"?>
<svg xmlns="http://www.w3.org/2000/svg" viewBox="0 0 512 512" width="512" height="512"><g id="outline"><path d="M470,64H288V55.6A20,20,0,0,0,284,16H228a20,20,0,0,0-4,39.6V64H42A26.029,26.029,0,0,0,16,90V390a26.029,26.029,0,0,0,26,26H208v32H184a8,8,0,0,0-7.761,6.06l-8,32A8,8,0,0,0,176,496H336a8,8,0,0,0,7.761-9.94l-8-32A8,8,0,0,0,328,448H304V416H470a26.029,26.029,0,0,0,26-26V90A26.029,26.029,0,0,0,470,64ZM228,32h56a4,4,0,0,1,0,8H228a4,4,0,0,1,0-8ZM187.6,319.131A7.981,7.981,0,0,1,184,320H120.107a8,8,0,0,1-8-8.059l.048-7.941H128a8,8,0,0,0,0-16H112.25l.1-16H128a8,8,0,0,0,0-16H112.441l.036-6.063a36.511,36.511,0,0,0-10.929-26.411A44.5,44.5,0,0,1,126.218,216h55.939A87.845,87.845,0,0,0,187.6,319.131ZM126.218,200a60.567,60.567,0,0,0-43.4,18.449,8,8,0,0,0,2.183,12.706,20.623,20.623,0,0,1,11.471,18.686l-.37,62a24,24,0,0,0,24,24.16H184a24.007,24.007,0,0,0,14.919-5.211,87.419,87.419,0,0,0,54.961,21.187q1.072.024,2.142.025a87.212,87.212,0,0,0,52-17.013A27.3,27.3,0,0,0,315.417,336h89.166a27.416,27.416,0,0,0,24.522-39.678L384,206.111V175.6a20,20,0,0,0-4-39.6H340a20,20,0,0,0-4,39.6v30.514l-5.467,10.934a87.955,87.955,0,0,0-35.7-32.028A12.041,12.041,0,0,1,288,174.191V112H448V368H64V112H224v61.9a12.3,12.3,0,0,1-6.7,11.056A88.79,88.79,0,0,0,195.536,200Zm211.79,96H344a8,8,0,0,0,0-16h-1.463A89.172,89.172,0,0,0,344,264a8,8,0,0,0,0-16h-1.443a87.654,87.654,0,0,0-3.29-12.645l11.888-23.777A7.994,7.994,0,0,0,352,208V176h16v32a7.994,7.994,0,0,0,.845,3.578l45.95,91.9A11.416,11.416,0,0,1,404.583,320h-80.7A87.157,87.157,0,0,0,338.008,296ZM336,156a4,4,0,0,1,4-4h40a4,4,0,0,1,0,8H340A4,4,0,0,1,336,156ZM224.342,199.318A28.4,28.4,0,0,0,240,173.9V56h32V174.191a27.937,27.937,0,0,0,15.762,25.179,71.691,71.691,0,0,1,35.077,37.692,8.03,8.03,0,0,0,.544,1.42A72.393,72.393,0,0,1,328,264a71.875,71.875,0,0,1-125.487,48H216a8,8,0,0,0,0-16H192c-.13,0-.256.013-.384.02A71.5,71.5,0,0,1,185.837,280H216a8,8,0,0,0,0-16H184.012c0-.188-.011-.374-.01-.562A72.85,72.85,0,0,1,185.775,248H216a8,8,0,0,0,0-16H191.43A71.828,71.828,0,0,1,224.342,199.318ZM321.754,464l4,16H186.246l4-16ZM256,440a24.027,24.027,0,0,0,24-24h8v32H224V416h8A24.027,24.027,0,0,0,256,440Zm-8-24h16a8,8,0,0,1-16,0Zm232-26a10.011,10.011,0,0,1-10,10H42a10.011,10.011,0,0,1-10-10V90A10.011,10.011,0,0,1,42,80H224V96H56a8,8,0,0,0-8,8V376a8,8,0,0,0,8,8H456a8,8,0,0,0,8-8V104a8,8,0,0,0-8-8H288V80H470a10.011,10.011,0,0,1,10,10Z"/><path d="M104,144a24,24,0,1,0,24,24A24.027,24.027,0,0,0,104,144Zm0,32a8,8,0,1,1,8-8A8.009,8.009,0,0,1,104,176Z"/><path d="M168,128a24,24,0,1,0,24,24A24.027,24.027,0,0,0,168,128Zm0,32a8,8,0,1,1,8-8A8.009,8.009,0,0,1,168,160Z"/><path d="M262.676,224.554a40.083,40.083,0,0,1,23.14,12.781,8,8,0,1,0,11.922-10.67,56.143,56.143,0,0,0-32.414-17.891,8,8,0,0,0-2.648,15.78Z"/></g></svg>
